<svg xmlns="http://www.w3.org/2000/svg" width="420" height="520" viewBox="0 0 420 520" role="img" aria-label="QRIS DemiSesama demo">
  <rect width="420" height="520" rx="24" fill="#ffffff"/>
  <rect x="18" y="18" width="384" height="484" rx="18" fill="#ffffff" stroke="#1e3a8a" stroke-width="4"/>
  <text x="210" y="62" text-anchor="middle" font-family="Arial, sans-serif" font-size="28" font-weight="700" fill="#1e3a8a">QRIS</text>
  <text x="210" y="92" text-anchor="middle" font-family="Arial, sans-serif" font-size="15" fill="#6b7280">DemiSesama Demo</text>
  <rect x="70" y="118" width="280" height="280" rx="8" fill="#f8fafc" stroke="#e5e7eb" stroke-width="2"/>
  <g fill="#111827">
    <rect x="88" y="136" width="70" height="70"/>
    <rect x="101" y="149" width="44" height="44" fill="#ffffff"/>
    <rect x="114" y="162" width="18" height="18"/>
    <rect x="262" y="136" width="70" height="70"/>
    <rect x="275" y="149" width="44" height="44" fill="#ffffff"/>
    <rect x="288" y="162" width="18" height="18"/>
    <rect x="88" y="310" width="70" height="70"/>
    <rect x="101" y="323" width="44" height="44" fill="#ffffff"/>
    <rect x="114" y="336" width="18" height="18"/>
    <rect x="176" y="136" width="18" height="18"/>
    <rect x="212" y="136" width="18" height="18"/>
    <rect x="176" y="172" width="36" height="18"/>
    <rect x="230" y="172" width="18" height="18"/>
    <rect x="176" y="208" width="18" height="18"/>
    <rect x="212" y="208" width="54" height="18"/>
    <rect x="88" y="226" width="18" height="18"/>
    <rect x="124" y="226" width="36" height="18"/>
    <rect x="194" y="244" width="18" height="18"/>
    <rect x="230" y="244" width="18" height="18"/>
    <rect x="280" y="226" width="36" height="18"/>
    <rect x="88" y="262" width="36" height="18"/>
    <rect x="142" y="262" width="18" height="18"/>
    <rect x="176" y="280" width="54" height="18"/>
    <rect x="248" y="262" width="18" height="36"/>
    <rect x="298" y="262" width="36" height="18"/>
    <rect x="176" y="316" width="18" height="18"/>
    <rect x="212" y="316" width="36" height="18"/>
    <rect x="280" y="316" width="18" height="18"/>
    <rect x="316" y="316" width="18" height="36"/>
    <rect x="176" y="352" width="54" height="18"/>
    <rect x="248" y="352" width="18" height="18"/>
    <rect x="280" y="370" width="54" height="18"/>
  </g>
  <rect x="148" y="230" width="124" height="56" rx="12" fill="#ffffff" stroke="#f59e0b" stroke-width="3"/>
  <text x="210" y="264" text-anchor="middle" font-family="Arial, sans-serif" font-size="18" font-weight="700" fill="#1e3a8a">DEMISESAMA</text>
  <text x="210" y="430" text-anchor="middle" font-family="Arial, sans-serif" font-size="15" fill="#374151">Scan untuk pembayaran donasi</text>
  <text x="210" y="456" text-anchor="middle" font-family="Arial, sans-serif" font-size="12" fill="#dc2626">Ganti dengan QRIS asli sebelum produksi</text>
</svg>
